stateDiagram-v2
    direction LR

    state "incident" as incident {
        state "config-change" as config_change
        state "data-change" as data_change
        state "incident-response" as incident_response
        mitigation
        postmortem
    }
    state "delivery" as delivery {
        experimentation
        state "inner-loop" as inner_loop
        pr
        refinement
        release
    }

    [*] --> incident_response: ▶ declared
    [*] --> inner_loop: ▶ ready_for_dev
    [*] --> refinement: ▶ raw
    config_change --> mitigation: ⊡ mitigated
    data_change --> mitigation: ⊡ mitigated
    experimentation --> inner_loop: ᐉ killed
    experimentation --> inner_loop: ᐉ promoted
    experimentation --> refinement: ᐉ iterated
    incident_response --> mitigation: ᐉ mitigating
    incident_response --> postmortem: ᐉ stabilized
    inner_loop --> pr: ᐉ implementing
    inner_loop --> refinement: ⊙ ready_bounced
    inner_loop --> refinement: ⊡ spike_returned
    inner_loop --> release: ⊙ staged
    mitigation --> config_change: ᐉ execute_mitigation
    mitigation --> data_change: ᐉ execute_mitigation
    mitigation --> incident_response: ⊡ needs_verification
    mitigation --> inner_loop: ᐉ execute_mitigation
    postmortem --> inner_loop: ᐉ complete
    postmortem --> refinement: ᐉ complete
    pr --> inner_loop: ⊡ staged
    refinement --> inner_loop: ᐉ spiking
    refinement --> inner_loop: ⊙ ready_for_dev
    release --> experimentation: ⊙ measuring
    release --> mitigation: ⊡ mitigated
    experimentation --> [*]: ■ aborted
    refinement --> [*]: ■ duplicate
    refinement --> [*]: ■ wont_fix
    release --> [*]: ■ shipped
